# xmcd CD database file
# Generated: Tue Feb 19 09:07:23 2002 by KSCD
# 
# Track frame offsets:
#       182
#       12970
#       31352
#       52082
#       74242
#       82937
#       101847
#       119190
#       136860
#       154657
#       171040
#
# Disc length: 2697 seconds
#
# Revision: 1
# Processed by: cddbd v1.4PL0 Copyright (c) Steve Scherf et al.
# Submitted via: Kscd 1.3.2
#
DISCID=990a870b
DTITLE=Slowpoke - Menagerie a Trois
DYEAR=1900
DGENRE=
TTITLE0=Play With Your Poodle
TTITLE1=Hip Shake Thing
TTITLE2=She's a Spy
TTITLE3=Willin'
TTITLE4=They're Red Hot
TTITLE5=Patty Anne
TTITLE6=3-Way Wiggle
TTITLE7=I Can't Be Satisfied
TTITLE8=Fishin' Blues
TTITLE9=All I Have to Give
TTITLE10=Fiyo on the Bayou
EXTD=
EXTT0=
EXTT1=
EXTT2=
EXTT3=
EXTT4=
EXTT5=
EXTT6=
EXTT7=
EXTT8=
EXTT9=
EXTT10=
PLAYORDER=
